<svg width="162" height="39" viewBox="0 0 162 39" fill="none" xmlns="http://www.w3.org/2000/svg">
<path d="M3.61248 13.2913C3.61248 14.554 3.80625 15.6896 4.1938 16.6979C4.58134 17.6972 5.11191 18.5466 5.7855 19.2461C6.46832 19.9365 7.27109 20.468 8.19382 20.8404C9.11655 21.2038 10.1177 21.3855 11.1973 21.3855C11.8432 21.3855 12.4661 21.2628 13.0658 21.0176C13.6656 20.7723 14.2192 20.4543 14.7267 20.0637C15.2435 19.664 15.7048 19.2189 16.1108 18.7283C16.5168 18.2287 16.849 17.7245 17.1074 17.2158L18.4084 18.0333C18.0301 18.642 17.5826 19.2279 17.0658 19.7912C16.5491 20.3453 15.9493 20.8404 15.2665 21.2765C14.5929 21.7034 13.8271 22.0441 12.9689 22.2985C12.12 22.5528 11.1696 22.68 10.1177 22.68C8.59521 22.68 7.21112 22.4302 5.96543 21.9305C4.72898 21.4309 3.66784 20.7541 2.78202 19.9002C1.89621 19.0463 1.20877 18.0515 0.719728 16.916C0.239909 15.7713 0 14.5631 0 13.2913C0 12.4465 0.110727 11.6243 0.332182 10.8249C0.553637 10.0164 0.871978 9.26241 1.2872 8.56291C1.71166 7.85433 2.22377 7.20934 2.82355 6.62794C3.43255 6.03746 4.11537 5.53328 4.872 5.1154C5.63787 4.68843 6.47293 4.3614 7.37721 4.13429C8.28148 3.8981 9.24573 3.78 10.27 3.78C11.248 3.78 12.1477 3.91172 12.9689 4.17517C13.7994 4.42953 14.5514 4.77019 15.225 5.19716C15.9078 5.62412 16.5122 6.11922 17.0382 6.68245C17.5733 7.2366 18.0301 7.81799 18.4084 8.42665L17.0658 9.29874C16.3 7.83616 15.4418 6.76875 14.4914 6.09651C13.541 5.41518 12.4476 5.07452 11.2111 5.07452C10.15 5.07452 9.15807 5.26529 8.23534 5.64683C7.31262 6.02838 6.50523 6.57344 5.81318 7.28202C5.13037 7.9906 4.59057 8.85361 4.1938 9.87106C3.80625 10.8794 3.61248 12.0195 3.61248 13.2913Z" fill="white"/>
<path d="M51.774 4.18879H53.5041L65.5319 17.4065H65.6703V4.18879H67.0267V22.68H66.307L53.2827 7.9906H53.1719V22.2576H51.774V4.18879Z" fill="white"/>
<path d="M74.9229 13.2913C74.9229 14.554 75.1167 15.6896 75.5042 16.6979C75.8918 17.6972 76.4224 18.5466 77.0959 19.2461C77.7788 19.9365 78.5815 20.468 79.5043 20.8404C80.427 21.2038 81.4282 21.3855 82.5077 21.3855C83.1536 21.3855 83.7765 21.2628 84.3763 21.0176C84.976 20.7723 85.5297 20.4543 86.0372 20.0637C86.5539 19.664 87.0153 19.2189 87.4213 18.7283C87.8273 18.2287 88.1595 17.7245 88.4178 17.2158L89.7189 18.0333C89.3405 18.642 88.893 19.2279 88.3763 19.7912C87.8596 20.3453 87.2598 20.8404 86.577 21.2765C85.9034 21.7034 85.1375 22.0441 84.2794 22.2985C83.4305 22.5528 82.4801 22.68 81.4281 22.68C79.9056 22.68 78.5216 22.4302 77.2759 21.9305C76.0394 21.4309 74.9783 20.7541 74.0925 19.9002C73.2066 19.0463 72.5192 18.0515 72.0302 16.916C71.5504 15.7713 71.3104 14.5631 71.3104 13.2913C71.3104 12.4465 71.4212 11.6243 71.6426 10.8249C71.8641 10.0164 72.1824 9.26241 72.5976 8.56291C73.0221 7.85433 73.5342 7.20934 74.134 6.62794C74.743 6.03746 75.4258 5.53328 76.1824 5.1154C76.9483 4.68843 77.7834 4.3614 78.6877 4.13429C79.5919 3.8981 80.5562 3.78 81.5804 3.78C82.5585 3.78 83.4582 3.91172 84.2794 4.17517C85.1098 4.42953 85.8619 4.77019 86.5354 5.19716C87.2183 5.62412 87.8226 6.11922 88.3486 6.68245C88.8838 7.2366 89.3405 7.81799 89.7189 8.42665L88.3763 9.29874C87.6104 7.83616 86.7523 6.76875 85.8019 6.09651C84.8515 5.41518 83.758 5.07452 82.5216 5.07452C81.4604 5.07452 80.4685 5.26529 79.5458 5.64683C78.6231 6.02838 77.8157 6.57344 77.1236 7.28202C76.4408 7.9906 75.901 8.85361 75.5042 9.87106C75.1167 10.8794 74.9229 12.0195 74.9229 13.2913Z" fill="white"/>
<path d="M94.0104 4.18879H100.377C101.475 4.18879 102.44 4.30689 103.27 4.54308C104.1 4.77019 104.792 5.09269 105.346 5.51057C105.9 5.92845 106.315 6.42809 106.592 7.00949C106.878 7.5818 107.021 8.20862 107.021 8.88995C107.021 9.45318 106.91 9.98007 106.689 10.4706C106.476 10.9612 106.172 11.4063 105.775 11.806C105.388 12.1967 104.917 12.5373 104.363 12.828C103.81 13.1096 103.201 13.3322 102.536 13.4957L109.222 22.2576H105.637L99.2561 13.7682H97.0969V22.2576H94.0104V4.18879ZM97.0969 12.8553H98.8824C99.5745 12.8553 100.211 12.7644 100.792 12.5827C101.383 12.4011 101.891 12.1467 102.315 11.8197C102.749 11.4835 103.085 11.0793 103.325 10.6069C103.565 10.1345 103.685 9.60307 103.685 9.01259C103.685 8.46753 103.588 7.96789 103.395 7.51367C103.21 7.05945 102.942 6.67336 102.592 6.35541C102.25 6.02838 101.84 5.77401 101.36 5.59233C100.889 5.41064 100.373 5.3198 99.8098 5.3198H97.0969V12.8553Z" fill="white"/>
<path d="M124.484 4.18879V5.36068H114.809V11.8197H121.287V12.9915H114.809V21.0857H124.484V22.2576H111.722V4.18879H124.484Z" fill="white"/>
<path d="M140.882 4.18879V5.36068H131.207V11.8197H137.685V12.9915H131.207V21.0857H140.882V22.2576H128.121V4.18879H140.882Z" fill="white"/>
<path d="M144.519 4.18879H150.637C152.519 4.18879 154.138 4.3614 155.495 4.7066C156.851 5.05181 157.982 5.60595 158.886 6.36904C159.919 7.24114 160.694 8.24042 161.211 9.36688C161.737 10.4933 162 11.7243 162 13.0597C162 14.3315 161.765 15.5261 161.294 16.6434C160.833 17.7608 160.15 18.7374 159.246 19.5731C158.351 20.3998 157.239 21.0539 155.91 21.5354C154.59 22.0168 153.077 22.2576 151.37 22.2576H144.519V4.18879ZM147.605 20.9358H150.886C151.919 20.9358 152.893 20.7677 153.806 20.4316C154.72 20.0955 155.513 19.5959 156.187 18.9327C156.87 18.2695 157.405 17.4565 157.792 16.4936C158.189 15.5215 158.388 14.3996 158.388 13.1278C158.388 12.0104 158.203 10.9884 157.834 10.0618C157.465 9.12614 156.948 8.32218 156.284 7.64993C155.619 6.97769 154.826 6.45534 153.903 6.08288C152.99 5.71042 151.988 5.52419 150.9 5.52419H147.605V20.9358Z" fill="white"/>
<path d="M60.476 32.5814L59.4347 32.6312C59.3436 32.6312 59.2811 32.6146 59.2469 32.5814C59.2242 32.5593 59.2014 32.482 59.1786 32.3494C59.1331 31.6532 58.8145 31.0731 58.2227 30.609C57.6423 30.1449 56.8514 29.9129 55.8499 29.9129C54.7233 29.9129 53.8015 30.2609 53.0845 30.9571C52.3676 31.6532 52.0091 32.598 52.0091 33.7914C52.0091 34.9738 52.3676 35.913 53.0845 36.6092C53.8015 37.3054 54.7233 37.6534 55.8499 37.6534C56.84 37.6534 57.6309 37.4435 58.2227 37.0236C58.8031 36.6037 59.1274 36.0567 59.1957 35.3826C59.2185 35.25 59.2412 35.1727 59.264 35.1506C59.2981 35.1174 59.3721 35.1009 59.4859 35.1009H60.4418C60.6239 35.1009 60.715 35.1451 60.715 35.2335C60.715 36.2611 60.2711 37.1286 59.3835 37.8358C58.5186 38.5319 57.335 38.88 55.8329 38.88C54.2624 38.88 52.9821 38.4214 51.9921 37.5043C50.9906 36.5761 50.4899 35.3274 50.4899 33.7583C50.4899 32.1892 50.9963 30.9405 52.0091 30.0123C53.0106 29.0841 54.2908 28.62 55.8499 28.62C57.3749 28.62 58.5698 29.0067 59.4347 29.7803C60.2996 30.5538 60.732 31.4322 60.732 32.4157C60.732 32.5262 60.6467 32.5814 60.476 32.5814Z" fill="white"/>
<path d="M72.5179 38.4988L71.5961 36.6589H65.9117L64.9728 38.4988C64.9159 38.5982 64.8704 38.659 64.8362 38.6811C64.7907 38.7032 64.7167 38.7142 64.6143 38.7142H63.5047C63.4023 38.7142 63.3511 38.6756 63.3511 38.5982L63.4365 38.3993L68.4551 28.7692H69.0697L74.0883 38.3993L74.1737 38.5982C74.1737 38.6756 74.1225 38.7142 74.02 38.7142H72.7398C72.7056 38.7142 72.6715 38.6977 72.6373 38.6645C72.6032 38.6314 72.5634 38.5761 72.5179 38.4988ZM67.943 32.7472L66.5774 35.3992H70.9645L69.5988 32.7472C69.5533 32.6698 69.4452 32.4433 69.2745 32.0676C69.1721 31.8356 69.064 31.5704 68.9502 31.272L68.8136 30.9239H68.7112C68.4267 31.7085 68.1706 32.3162 67.943 32.7472Z" fill="white"/>
<path d="M78.7877 38.7142L77.7123 38.7308C77.6554 38.7308 77.6042 38.7142 77.5587 38.6811C77.5131 38.6369 77.4904 38.5872 77.4904 38.5319V28.9846C77.4904 28.9294 77.5131 28.8797 77.5587 28.8355C77.6042 28.7913 77.6554 28.7692 77.7123 28.7692H81.9116C83.152 28.7692 84.1535 29.0896 84.9159 29.7305C85.6898 30.3825 86.0767 31.261 86.0767 32.366C86.0767 33.4599 85.6841 34.3274 84.8989 34.9683C84.125 35.6092 83.1292 35.9296 81.9116 35.9296H79.0096V38.4988C79.0096 38.554 78.9869 38.6037 78.9413 38.6479C78.8958 38.6921 78.8446 38.7142 78.7877 38.7142ZM81.8774 30.062L78.9926 30.0455V34.7031H81.8604C82.657 34.7031 83.3056 34.4931 83.8064 34.0732C84.3071 33.6533 84.5575 33.0898 84.5575 32.3825C84.5575 31.6643 84.3128 31.1007 83.8234 30.6919C83.3227 30.272 82.674 30.062 81.8774 30.062Z" fill="white"/>
<path d="M91.2518 28.9681V38.5153C91.2518 38.5706 91.229 38.6203 91.1835 38.6645C91.1494 38.6977 91.0982 38.7142 91.0299 38.7142H89.9374C89.8691 38.7142 89.8179 38.6977 89.7838 38.6645C89.7382 38.6203 89.7155 38.5706 89.7155 38.5153V28.9681C89.7155 28.9128 89.7382 28.8631 89.7838 28.8189C89.8293 28.7747 89.8805 28.7526 89.9374 28.7526H91.0299C91.0868 28.7526 91.138 28.7747 91.1835 28.8189C91.229 28.8631 91.2518 28.9128 91.2518 28.9681Z" fill="white"/>
<path d="M94.9691 30.0289C94.9236 30.0289 94.8724 30.0013 94.8155 29.946C94.7586 29.8908 94.7301 29.841 94.7301 29.7968V29.0012C94.7301 28.957 94.7586 28.9073 94.8155 28.852C94.8724 28.7968 94.9236 28.7692 94.9691 28.7692H104.563C104.608 28.7692 104.659 28.7968 104.716 28.852C104.773 28.9073 104.802 28.957 104.802 29.0012V29.7968C104.802 29.841 104.773 29.8908 104.716 29.946C104.659 30.0013 104.608 30.0289 104.563 30.0289H100.517V38.5153C100.517 38.5595 100.5 38.6093 100.466 38.6645C100.443 38.6977 100.397 38.7142 100.329 38.7142H99.2367C99.1684 38.7142 99.1229 38.6977 99.1001 38.6645C99.066 38.6093 99.0489 38.5595 99.0489 38.5153V30.0289H94.9691Z" fill="white"/>
<path d="M114.57 38.4988L113.648 36.6589H107.964L107.025 38.4988C106.968 38.5982 106.923 38.659 106.888 38.6811C106.843 38.7032 106.769 38.7142 106.667 38.7142H105.557C105.455 38.7142 105.403 38.6756 105.403 38.5982L105.489 38.3993L110.507 28.7692H111.122L116.141 38.3993L116.226 38.5982C116.226 38.6756 116.175 38.7142 116.072 38.7142H114.792C114.758 38.7142 114.724 38.6977 114.69 38.6645C114.655 38.6314 114.616 38.5761 114.57 38.4988ZM109.995 32.7472L108.63 35.3992H113.017L111.651 32.7472C111.606 32.6698 111.497 32.4433 111.327 32.0676C111.224 31.8356 111.116 31.5704 111.002 31.272L110.866 30.9239H110.763C110.479 31.7085 110.223 32.3162 109.995 32.7472Z" fill="white"/>
<path d="M121.045 28.9681L121.028 37.4711H126.661C126.706 37.4711 126.758 37.4987 126.815 37.554C126.871 37.6092 126.9 37.659 126.9 37.7032V38.4988C126.9 38.543 126.871 38.5927 126.815 38.6479C126.769 38.6921 126.718 38.7142 126.661 38.7142H119.73C119.662 38.7142 119.611 38.6977 119.577 38.6645C119.531 38.6203 119.508 38.5706 119.508 38.5153V28.9681C119.508 28.9128 119.531 28.8631 119.577 28.8189C119.622 28.7747 119.673 28.7526 119.73 28.7526H120.823C120.88 28.7526 120.931 28.7747 120.976 28.8189C121.022 28.8631 121.045 28.9128 121.045 28.9681Z" fill="white"/>
<path fill-rule="evenodd" clip-rule="evenodd" d="M35.8674 0.0599233C36.0067 0.0897476 36.4458 0.159338 36.8432 0.21449C37.2404 0.269707 37.6394 0.352594 37.7297 0.398819C37.8199 0.445043 38.0433 0.503045 38.2261 0.527804C38.4089 0.552562 38.5739 0.5979 38.5928 0.628548C38.6118 0.659132 38.7472 0.714728 38.8937 0.752024C39.3053 0.856884 40.6743 1.46274 40.7401 1.56918C40.7586 1.59901 40.852 1.64308 40.9478 1.66714C41.0435 1.69114 41.1363 1.73002 41.1541 1.75345C41.2066 1.82285 41.8545 2.20734 41.9188 2.20734C41.9513 2.20734 41.9779 2.23304 41.9779 2.26439C41.9779 2.2958 42.0706 2.38115 42.1837 2.45403C42.5997 2.72201 42.7323 2.81794 43.0265 3.06407C43.3992 3.37593 44.4241 4.40154 44.6374 4.67623C44.7245 4.78837 44.8383 4.92476 44.8903 4.97935C44.9423 5.03393 45.0136 5.1253 45.0486 5.18242C45.3012 5.59394 45.4168 5.75332 45.4626 5.75332C45.4916 5.75332 45.5356 5.8169 45.5602 5.89459C45.5849 5.97229 45.6633 6.12185 45.7345 6.22703C46.0354 6.67154 46.0784 6.74487 46.1253 6.89431C46.1524 6.98074 46.2276 7.11935 46.2925 7.20243C46.3574 7.28551 46.4104 7.39505 46.4104 7.4459C46.4104 7.49681 46.4677 7.61877 46.5376 7.71698C46.6075 7.81525 46.6826 7.99059 46.7045 8.10672C46.7265 8.22285 46.7808 8.36057 46.8254 8.41281C46.8699 8.46505 46.9272 8.62082 46.9529 8.75893C46.9785 8.89709 47.0498 9.12505 47.1113 9.2655C47.1728 9.40601 47.2434 9.66341 47.2682 9.83754C47.2931 10.0117 47.3498 10.226 47.3942 10.3138C47.4388 10.4017 47.5076 10.8291 47.5472 11.2637C47.5869 11.6982 47.6445 12.3089 47.6755 12.6207C47.7097 12.9661 47.708 13.3867 47.6711 13.6972C47.6377 13.9774 47.581 14.5321 47.5451 14.9298C47.5092 15.3276 47.4513 15.7062 47.4165 15.7712C47.3817 15.8363 47.3121 16.1044 47.2618 16.367C47.2116 16.6296 47.1277 16.9056 47.0754 16.9802C47.0231 17.0549 46.9803 17.1884 46.9803 17.277C46.9803 17.3655 46.9233 17.5443 46.8537 17.6742C46.784 17.8042 46.727 17.9458 46.727 17.989C46.727 18.0626 46.4653 18.6509 46.3392 18.8608C46.3078 18.9131 46.2238 19.0698 46.1524 19.2091C45.9347 19.6343 45.817 19.832 45.5382 20.2403C45.3911 20.4559 45.2706 20.6548 45.2706 20.6823C45.2706 20.7098 45.2208 20.7794 45.1598 20.837C45.0989 20.8946 44.9778 21.033 44.8907 21.1446C44.3046 21.8957 42.84 23.3566 42.6731 23.3566C42.6369 23.3566 42.5918 23.3968 42.573 23.4458C42.5542 23.4948 42.4553 23.5696 42.3533 23.6118C42.2514 23.654 42.1679 23.7084 42.1679 23.7325C42.1679 23.7567 42.0682 23.824 41.9463 23.8821C41.8244 23.9403 41.7246 24.014 41.7246 24.0459C41.7246 24.0779 41.6463 24.1363 41.5505 24.1756C41.4548 24.2149 41.2339 24.3307 41.0598 24.433C40.7571 24.6106 40.2105 24.8845 39.6667 25.131C39.5274 25.1942 39.2935 25.2775 39.147 25.3161C39.0004 25.3547 38.8644 25.4124 38.8447 25.4443C38.825 25.4762 38.6742 25.5218 38.5096 25.5458C38.345 25.5697 38.1347 25.6276 38.0423 25.6746C37.9498 25.7214 37.6649 25.7913 37.4091 25.8298C37.1532 25.8683 36.7872 25.9453 36.5956 26.001C36.3161 26.0823 35.9224 26.1023 34.601 26.1023C33.2796 26.1023 32.8859 26.0823 32.6064 26.001C32.4149 25.9453 32.0488 25.8683 31.793 25.8298C31.5372 25.7913 31.2522 25.7217 31.1598 25.6751C31.0673 25.6286 30.8777 25.573 30.7384 25.5515C30.5991 25.5301 30.3722 25.455 30.2343 25.3844C30.0963 25.3139 29.9396 25.2561 29.8861 25.256C29.753 25.2557 29.377 25.0206 29.377 24.9378C29.377 24.901 29.521 24.694 29.697 24.4778C29.8729 24.2617 30.0653 24.021 30.1244 23.9431C30.1835 23.8652 30.3524 23.6657 30.4996 23.4998C30.6468 23.334 30.7679 23.1811 30.7687 23.1601C30.7694 23.139 30.8429 23.0393 30.9319 22.9384C31.0209 22.8376 31.1646 22.6696 31.2513 22.5651C31.338 22.4606 31.4433 22.3337 31.4852 22.2831C31.6912 22.0348 32.2439 21.3452 32.3398 21.2171C32.3993 21.1373 32.4931 21.0234 32.548 20.9638C32.6547 20.8481 33.2298 20.1307 33.4139 19.8836C33.5242 19.7355 33.7104 19.5128 33.9249 19.2724C33.9871 19.2027 34.1361 19.0194 34.2562 18.8649C34.4693 18.5906 34.6077 18.4252 34.7939 18.2223C34.8445 18.1671 34.886 18.0904 34.886 18.0518C34.886 18.0131 34.9433 17.9413 35.0135 17.8922C35.0837 17.8431 35.2475 17.6633 35.3776 17.4928C35.5077 17.3223 35.6569 17.1486 35.7091 17.1068C35.8263 17.013 36.2149 17.0625 36.564 17.2156C36.7033 17.2768 36.917 17.3471 37.0389 17.3718C37.1608 17.3966 37.3181 17.4532 37.3885 17.4976C37.459 17.542 37.6442 17.5989 37.8001 17.6241C37.9561 17.6493 38.1407 17.7052 38.2103 17.7484C38.28 17.7916 38.4794 17.8617 38.6536 17.9042C38.8277 17.9466 39.0922 18.0398 39.2414 18.1112L39.5125 18.2409L39.368 18.3786C39.0784 18.6546 38.1153 19.8508 38.1153 19.9345C38.1153 19.9708 38.0918 20.0006 38.063 20.0006C38.0193 20.0006 37.566 20.5384 37.1162 21.1239C37.0562 21.2019 36.9492 21.3322 36.8783 21.4134C36.3824 21.981 36.2702 22.1526 36.3109 22.281C36.3442 22.3857 36.3897 22.4072 36.522 22.3812C36.6147 22.3628 36.8046 22.3294 36.9439 22.3069C37.0832 22.2843 37.2542 22.2307 37.3238 22.1876C37.3935 22.1445 37.5644 22.0882 37.7038 22.0623C37.8431 22.0364 38.0283 21.9772 38.1153 21.9308C38.4643 21.7446 39.1112 21.457 39.181 21.457C39.2218 21.457 39.2551 21.4278 39.2551 21.3921C39.2551 21.3564 39.3207 21.3023 39.4008 21.2718C39.481 21.2413 39.6829 21.1209 39.8496 21.0042C40.0164 20.8876 40.2001 20.7636 40.258 20.7288C40.6231 20.509 41.548 19.6091 42.0152 19.0191C42.6472 18.2209 42.6745 18.1818 42.6745 18.0731C42.6745 18.0166 42.7158 17.9545 42.7664 17.9351C42.8169 17.9157 42.8896 17.8049 42.9279 17.6889C42.9663 17.5728 43.037 17.4451 43.0852 17.4051C43.1334 17.3651 43.1927 17.2417 43.2169 17.1309C43.2411 17.0201 43.3141 16.8616 43.3792 16.7785C43.4444 16.6954 43.4976 16.5661 43.4976 16.4911C43.4976 16.4161 43.5546 16.243 43.6243 16.1063C43.6939 15.9697 43.7509 15.7989 43.7509 15.7267C43.7509 15.6545 43.8055 15.4396 43.8722 15.2493C44.0547 14.7282 44.1423 13.3071 44.0601 12.1963C44.018 11.6269 43.9487 11.1662 43.8722 10.9479C43.8055 10.7575 43.7509 10.5284 43.7509 10.4388C43.7509 10.3492 43.6972 10.1705 43.6314 10.0416C43.5658 9.9127 43.4938 9.71007 43.4715 9.59128C43.4492 9.47256 43.389 9.34053 43.3377 9.29792C43.2863 9.2553 43.2444 9.17096 43.2444 9.11042C43.2444 9.04989 43.1731 8.89538 43.0861 8.7671C42.999 8.63881 42.9278 8.49209 42.9278 8.44105C42.9278 8.39002 42.8708 8.29947 42.8011 8.23982C42.7315 8.18017 42.674 8.1021 42.6733 8.06632C42.6723 8.00496 42.4175 7.603 42.2498 7.39803C42.2079 7.34667 42.0939 7.20743 41.9966 7.08864C41.4464 6.4168 39.9824 5.12011 39.7742 5.12011C39.741 5.12011 39.6748 5.07294 39.6269 5.01531C39.5792 4.95769 39.4546 4.87176 39.3501 4.8244C39.2456 4.77704 39.1174 4.71156 39.0652 4.67883C38.8447 4.54079 38.1407 4.23361 38.0449 4.23361C37.9877 4.23361 37.908 4.19397 37.8678 4.14553C37.8275 4.09709 37.6626 4.03763 37.5012 4.01338C37.3398 3.98919 37.1484 3.93315 37.0758 3.88889C36.859 3.75655 35.4152 3.5702 34.601 3.56944C33.8067 3.56874 32.5447 3.73192 32.1631 3.88478C32.0413 3.9336 31.8418 3.99211 31.7199 4.01484C31.598 4.03751 31.4351 4.09602 31.358 4.14484C31.2809 4.19366 31.1834 4.23361 31.1414 4.23361C31.0679 4.23361 30.3325 4.56054 30.1369 4.68022C30.0846 4.71213 29.9564 4.77704 29.8519 4.8244C29.7474 4.87176 29.6228 4.95769 29.5751 5.01531C29.5273 5.07294 29.4533 5.12011 29.4108 5.12011C29.3682 5.12011 29.2817 5.1771 29.2187 5.24675C29.1557 5.31641 29.0724 5.3734 29.0337 5.3734C28.9949 5.3734 28.8294 5.50162 28.6659 5.65834C28.5023 5.81506 28.3544 5.94329 28.3373 5.94329C28.2887 5.94329 27.6635 6.58112 27.3824 6.91755C27.2431 7.08433 27.0507 7.31007 26.955 7.4193C26.8592 7.52853 26.7808 7.64029 26.7808 7.66771C26.7808 7.69513 26.6824 7.85768 26.562 8.02896C26.4416 8.20018 26.2997 8.43498 26.2467 8.55073C26.1936 8.66641 26.1229 8.80382 26.0894 8.85606C25.9881 9.01462 25.7044 9.6667 25.7044 9.74117C25.7044 9.77954 25.6514 9.91663 25.5867 10.0459C25.5219 10.175 25.4497 10.409 25.4262 10.5657C25.4028 10.7225 25.3434 10.9647 25.2943 11.104C25.1709 11.4541 25.0554 13.0349 25.1453 13.1432C25.2557 13.2763 25.3562 13.2395 25.5708 12.9878C25.887 12.6167 28.6172 9.2327 28.6172 9.21167C28.6172 9.19078 28.9721 8.77634 29.322 8.38894L29.5519 8.13433L29.8919 8.21183C30.0789 8.25445 30.3743 8.34189 30.5485 8.40617C31.1133 8.61468 31.4925 8.73746 31.7823 8.80572C31.9385 8.84258 32.1237 8.90754 32.1939 8.95022C32.264 8.99284 32.4854 9.06236 32.6858 9.10479C33.117 9.19603 33.2773 9.37941 33.0735 9.54835C33.0076 9.60294 32.8399 9.78999 32.7009 9.96412C32.5619 10.1382 32.4124 10.3183 32.3689 10.3644C32.3254 10.4105 32.2894 10.4675 32.2889 10.4911C32.2881 10.5284 32.131 10.7156 31.6685 11.2306C31.6059 11.3003 31.3939 11.571 31.1974 11.8322C31.0008 12.0934 30.7409 12.4167 30.6198 12.5507C30.4987 12.6847 30.3334 12.8815 30.2524 12.9879C29.9491 13.3868 29.7506 13.6297 29.4403 13.9817C29.3533 14.0804 29.2108 14.256 29.1237 14.3719C28.9486 14.605 28.1835 15.5632 27.663 16.2013C27.1741 16.8007 25.7879 18.504 24.963 19.5188C24.5697 20.0026 24.248 20.4183 24.248 20.4426C24.248 20.467 24.1816 20.5171 24.1005 20.554C23.9719 20.6127 23.9325 20.5955 23.7923 20.4198C23.7039 20.309 23.5366 20.0482 23.4206 19.8403C23.3046 19.6324 23.1891 19.4478 23.1639 19.4301C23.1388 19.4123 23.099 19.3208 23.0754 19.2269C23.0518 19.1329 22.994 19.0241 22.9469 18.985C22.8999 18.9459 22.8278 18.8095 22.7869 18.6816C22.7458 18.5538 22.6763 18.4065 22.6324 18.3542C22.5884 18.302 22.5312 18.1595 22.5053 18.0376C22.4793 17.9157 22.4049 17.7167 22.3399 17.5953C22.2749 17.474 22.2217 17.3168 22.2217 17.2461C22.2217 17.1755 22.1687 17.0183 22.1039 16.8969C22.0392 16.7755 21.9657 16.5103 21.9405 16.3076C21.9154 16.1049 21.8563 15.8467 21.8091 15.7338C21.7619 15.6209 21.676 14.9728 21.6182 14.2936C21.5202 13.143 21.5202 12.9754 21.6181 11.8375C21.6758 11.1658 21.7537 10.5408 21.791 10.4485C21.8283 10.3563 21.8961 10.0956 21.9418 9.8692C22.0357 9.4029 22.2528 8.71688 22.3858 8.46638C22.4349 8.37393 22.4759 8.25996 22.477 8.2131C22.4781 8.16624 22.5636 7.9576 22.6669 7.74952C22.7703 7.54145 22.8549 7.3349 22.8549 7.29044C22.8549 7.24606 22.8812 7.20971 22.9133 7.20971C22.9455 7.20971 23.0065 7.10289 23.049 6.97226C23.0914 6.84169 23.1648 6.71201 23.2121 6.68414C23.2595 6.65628 23.2982 6.60088 23.2982 6.56092C23.2982 6.52097 23.3694 6.37995 23.4565 6.24748C23.5436 6.11501 23.6932 5.88554 23.7889 5.73749C23.8847 5.58945 24.013 5.41316 24.0739 5.3456C24.1348 5.2781 24.1847 5.20388 24.1847 5.18071C24.1847 5.15753 24.2488 5.06578 24.3272 4.97681C24.4055 4.88785 24.5836 4.68003 24.7229 4.51501C25.1506 4.00838 26.1644 3.03051 26.2619 3.03051C26.2788 3.03051 26.3526 2.97131 26.4259 2.89893C26.5529 2.77355 26.8837 2.51894 27.1378 2.35095C27.2027 2.30808 27.364 2.20113 27.4964 2.11324C27.7031 1.97609 28.1044 1.7487 28.7438 1.40639C28.8309 1.35978 28.9342 1.32147 28.9735 1.32122C29.0128 1.32103 29.0788 1.27993 29.1204 1.22991C29.1619 1.17995 29.2865 1.11986 29.3972 1.09643C29.508 1.07306 29.6841 1.00303 29.7886 0.940911C29.8931 0.878793 30.0783 0.80781 30.2002 0.783242C30.3221 0.75861 30.4811 0.701051 30.5537 0.655206C30.6263 0.609425 30.8257 0.551929 30.997 0.527487C31.1682 0.503109 31.3938 0.444853 31.4983 0.398122C31.6028 0.351328 32.0017 0.270023 32.3848 0.21734C32.7679 0.16472 33.2348 0.0922804 33.4224 0.0563773C33.8244 -0.020558 35.5032 -0.0181518 35.8674 0.0599233Z" fill="white"/>
<path d="M32.7963 12.4654L36.5322 13.7951L26.4642 26.1427H21.7151L32.7963 12.4654Z" fill="#27D2A9"/>
</svg>
